# xmcd
#
# Track frame offsets: 
#        150
#        10975
#        21150
#        32930
#        44065
#        53400
#        64930
#        76930
#        88500
#        99175
#        111100
#
# Disc length: 1486 seconds
#
# Revision: 0
# Processed by: cddbd v1.5PL3 Copyright (c) Steve Scherf et al.
# Submitted via: ExactAudioCopy v0.95a5
#
DISCID=8205cc0b
DTITLE=Tony Booth - Tony Booth - Greatest Hits
DYEAR=1900
DGENRE=Country
TTITLE0=Key's In The Mailbox
TTITLE1=Old Faithful
TTITLE2=A Different Kind of Sad
TTITLE3=Love Don't Make the Bars
TTITLE4=Secret Love
TTITLE5=LOnesome 7-7203
TTITLE6=Out of Ways to Try
TTITLE7=Workin' At The CarWash Blues
TTITLE8=Cinderella
TTITLE9=Happy Hour
TTITLE10=Blank
EXTD=
EXTT0=
EXTT1=
EXTT2=
EXTT3=
EXTT4=
EXTT5=
EXTT6=
EXTT7=
EXTT8=
EXTT9=
EXTT10=
PLAYORDER=
